<svg id="instagram" xmlns="http://www.w3.org/2000/svg" width="21" height="21" viewBox="0 0 21 21">
  <path id="Path_33" data-name="Path 33" d="M14.438,0H6.563A6.563,6.563,0,0,0,0,6.563v7.875A6.563,6.563,0,0,0,6.563,21h7.875A6.563,6.563,0,0,0,21,14.438V6.563A6.563,6.563,0,0,0,14.438,0Zm4.594,14.438a4.6,4.6,0,0,1-4.594,4.594H6.563a4.6,4.6,0,0,1-4.594-4.594V6.563A4.6,4.6,0,0,1,6.563,1.969h7.875a4.6,4.6,0,0,1,4.594,4.594Z" fill="#554e55"/>
  <path id="Path_34" data-name="Path 34" d="M10.5,5.25a5.25,5.25,0,1,0,5.25,5.25A5.25,5.25,0,0,0,10.5,5.25Zm0,8.531A3.281,3.281,0,1,1,13.781,10.5,3.286,3.286,0,0,1,10.5,13.781Z" fill="#554e55"/>
  <path id="Path_35" data-name="Path 35" d="M16.144,5.556a.7.7,0,1,0-.7-.7A.7.7,0,0,0,16.144,5.556Z" fill="#554e55"/>
</svg>
