<svg xmlns="http://www.w3.org/2000/svg" width="18" height="16" viewBox="0 0 18 16">
  <g id="Group_15" data-name="Group 15" transform="translate(-641 -476.993)">
    <path id="heart" d="M9,16a1.056,1.056,0,0,1-.7-.261c-.727-.635-1.428-1.232-2.047-1.759l0,0A38.053,38.053,0,0,1,1.785,9.786,6.691,6.691,0,0,1,0,5.4,5.618,5.618,0,0,1,1.428,1.566,4.842,4.842,0,0,1,5.028,0,4.53,4.53,0,0,1,7.857.975,5.783,5.783,0,0,1,9,2.168,5.784,5.784,0,0,1,10.144.975,4.53,4.53,0,0,1,12.972,0a4.842,4.842,0,0,1,3.6,1.566A5.618,5.618,0,0,1,18,5.4a6.69,6.69,0,0,1-1.785,4.381,38.045,38.045,0,0,1-4.469,4.191c-.62.527-1.322,1.125-2.051,1.762A1.057,1.057,0,0,1,9,16ZM5.028,1.053A3.8,3.8,0,0,0,2.2,2.28,4.57,4.57,0,0,0,1.054,5.4,5.629,5.629,0,0,0,2.6,9.114a37.446,37.446,0,0,0,4.341,4.061l0,0c.621.529,1.325,1.128,2.057,1.768.737-.641,1.442-1.241,2.064-1.771A37.452,37.452,0,0,0,15.4,9.114,5.63,5.63,0,0,0,16.946,5.4,4.57,4.57,0,0,0,15.8,2.28a3.8,3.8,0,0,0-2.825-1.226,3.5,3.5,0,0,0-2.183.755A5.113,5.113,0,0,0,9.572,3.215a.666.666,0,0,1-1.143,0A5.108,5.108,0,0,0,7.212,1.809,3.5,3.5,0,0,0,5.028,1.053Zm0,0" transform="translate(641 476.993)" fill="#554e55"/>
  </g>
</svg>
