<svg xmlns="http://www.w3.org/2000/svg" width="242.724" height="55.569" viewBox="0 0 242.724 55.569">
  <g id="Group_12" data-name="Group 12" transform="translate(-140 -40)">
    <g id="cauldron" transform="translate(140 40)">
      <g id="Group_10" data-name="Group 10" transform="translate(6.842 0.898)">
        <path id="Path_1" data-name="Path 1" d="M134.439,63.445a3.958,3.958,0,0,0-.069-2.3,4.014,4.014,0,0,0-4.915-2.573,4.018,4.018,0,0,0-3.862-2.122,3.263,3.263,0,0,0,.258-2.657,3.3,3.3,0,0,0-6.412,1.337,3.3,3.3,0,0,0-3.268,2.75,5.124,5.124,0,0,0-8.411,2.019,4.007,4.007,0,0,0-5.475,4.449,4.114,4.114,0,0,0-3.26,3.105s4,6.993,18.7,6.993,18.7-6.993,18.7-6.993A5.049,5.049,0,0,0,134.439,63.445Z" transform="translate(-98.428 -46.268)" fill="#c7417b"/>
        <path id="Path_2" data-name="Path 2" d="M286.889,67.453a12.4,12.4,0,0,1-4.936,4.132,8.77,8.77,0,0,0,1.706-1.932,5.053,5.053,0,0,0-1.976-4.006,3.993,3.993,0,0,0-4.963-4.875,4,4,0,0,0-3.846-2.123,3.284,3.284,0,0,0-2.727-4.9,3.284,3.284,0,1,1,5.958,2.7,4,4,0,0,1,3.844,2.122,3.994,3.994,0,0,1,4.963,4.875A5.056,5.056,0,0,1,286.889,67.453Z" transform="translate(-248.895 -46.27)" fill="#a22f61"/>
        <g id="Group_2" data-name="Group 2" transform="translate(26.293)">
          <g id="Group_1" data-name="Group 1" transform="translate(0)">
            <path id="Path_3" data-name="Path 3" d="M322.737,7.66a1.726,1.726,0,0,0-2.3.823l-8.225,17.433h3.816l7.531-15.96a1.724,1.724,0,0,0-.824-2.3Z" transform="translate(-312.215 -7.494)" fill="#9a5e5f"/>
          </g>
        </g>
        <g id="Group_8" data-name="Group 8" transform="translate(0 21.305)">
          <g id="Group_7" data-name="Group 7">
            <path id="Path_8" data-name="Path 8" d="M132.63,200.5c0,9.069-8.639,16.42-19.3,16.42s-19.3-7.351-19.3-16.42a14.449,14.449,0,0,1,2.241-7.688,3.994,3.994,0,0,0-.349-4.7,5.2,5.2,0,0,1-1.292-3.793c0,1.758,8.371,3.183,18.7,3.183s18.7-1.426,18.7-3.183a5.215,5.215,0,0,1-1.292,3.794,3.99,3.99,0,0,0-.35,4.7,14.446,14.446,0,0,1,2.242,7.689Z" transform="translate(-94.038 -184.314)" fill="#554e55"/>
            <g id="Group_6" data-name="Group 6" transform="translate(6.117 0)">
              <circle id="Ellipse_1" data-name="Ellipse 1" cx="1.786" cy="1.786" r="1.786" transform="translate(5.49 24.177)" fill="#433f43"/>
              <path id="Path_9" data-name="Path 9" d="M233.245,336.527a3.068,3.068,0,1,0-2.962,1.562,1.786,1.786,0,1,0,2.962-1.562Z" transform="translate(-217.566 -314.277)" fill="#433f43"/>
              <path id="Path_10" data-name="Path 10" d="M159.361,214.985a3.475,3.475,0,0,1-4.255,3.384,2.546,2.546,0,1,1-4.533-1.671,3.531,3.531,0,0,1-3.249-3.438,3.474,3.474,0,0,1,.718-6.675h0c2.485.278,5.38.455,8.5.5a3.474,3.474,0,0,1,1.029,4.858A3.473,3.473,0,0,1,159.361,214.985Z" transform="translate(-145.098 -203.916)" fill="#433f43"/>
              <path id="Path_11" data-name="Path 11" d="M257.041,200.5c0,9.069-8.6,16.42-19.219,16.42q-1.148,0-2.264-.113c9.548-.958,16.952-7.894,16.952-16.308a14.489,14.489,0,0,0-2.233-7.689,4,4,0,0,1,.349-4.7,5.632,5.632,0,0,0,.969-1.651c3.012-.567,4.848-1.318,4.848-2.143a5.229,5.229,0,0,1-1.287,3.794,4,4,0,0,0-.349,4.7A14.489,14.489,0,0,1,257.041,200.5Z" transform="translate(-224.566 -184.314)" fill="#433f43"/>
            </g>
          </g>
        </g>
        <g id="Group_9" data-name="Group 9" transform="translate(11.558 16.335)">
          <path id="Path_13" data-name="Path 13" d="M294.42,146.536a4.243,4.243,0,0,0-8.418,0Z" transform="translate(-274.466 -142.828)" fill="#a22f61"/>
          <circle id="Ellipse_2" data-name="Ellipse 2" cx="1.786" cy="1.786" r="1.786" transform="translate(0 26.503)" fill="#a22f61"/>
          <path id="Path_14" data-name="Path 14" d="M232.276,314.458a3.068,3.068,0,1,0-2.962,1.562,1.786,1.786,0,1,0,2.962-1.562Z" transform="translate(-222.116 -289.882)" fill="#c7417b"/>
        </g>
        <path id="Path_15" data-name="Path 15" d="M245.376,316.1a1.785,1.785,0,0,1-2.964,1,1.782,1.782,0,0,0,.1-2.319.531.531,0,0,1-.066-.532,3.069,3.069,0,0,0-1.682-4.035,3.045,3.045,0,0,1,1.554-.314,3.069,3.069,0,0,1,2.489,4.555A1.784,1.784,0,0,1,245.376,316.1Z" transform="translate(-223.109 -273.572)" fill="#a22f61"/>
        <path id="Path_16" data-name="Path 16" d="M167.97,183.148a3.473,3.473,0,0,0-2.89-5.4h-6.106a3.473,3.473,0,0,0-1.248,6.715,3.529,3.529,0,0,0,3.248,3.438,2.546,2.546,0,1,0,4.534,1.671,3.474,3.474,0,0,0,2.462-6.424Z" transform="translate(-148.09 -157.288)" fill="#c7417b"/>
        <path id="Path_17" data-name="Path 17" d="M208.929,186.184a3.475,3.475,0,0,1-4.255,3.384A2.545,2.545,0,0,1,200,190.876a2.554,2.554,0,0,0,1.556-1.713.7.7,0,0,1,.715-.5,3.61,3.61,0,0,0,.659-.032,3.473,3.473,0,0,0,1.686-6.132.754.754,0,0,1-.213-.889,3.478,3.478,0,0,0,.285-1.475,3.413,3.413,0,0,0-1.071-2.391h.631a3.474,3.474,0,0,1,2.891,5.4A3.473,3.473,0,0,1,208.929,186.184Z" transform="translate(-187.237 -157.285)" fill="#a22f61"/>
      </g>
      <g id="Group_11" data-name="Group 11" transform="translate(0 0)">
        <path id="Path_18" data-name="Path 18" d="M145.744,28.007a5.046,5.046,0,0,0-3.55,1.443,3.132,3.132,0,0,1,.6-2.939,6.167,6.167,0,0,0,1.489-4.5,6.173,6.173,0,0,0-1.878-4.26,4.9,4.9,0,0,0-2.744-5.105l4.189-8.9A2.626,2.626,0,1,0,139.1,1.506l-4.272,9.076a4.947,4.947,0,0,0-.975-.3A4.183,4.183,0,1,0,125.6,8.969a4.186,4.186,0,0,0-2.807,2.1,6.013,6.013,0,0,0-1.944-.759.9.9,0,0,0-.354,1.766,4.2,4.2,0,0,1,2.106,1.107.9.9,0,0,0,1.512-.5,2.385,2.385,0,0,1,2.354-2h.014a.9.9,0,0,0,.895-.983,2.386,2.386,0,1,1,4.451.961A.9.9,0,0,0,132.679,12a3.1,3.1,0,0,1,1.384.214l-1.917,4.073a5.154,5.154,0,0,0-4.486,4.466.9.9,0,0,0,.779,1.006.886.886,0,0,0,.114.007.9.9,0,0,0,.89-.788,3.343,3.343,0,0,1,6.634,0,.9.9,0,1,0,1.783-.225,5.121,5.121,0,0,0-.913-2.337l1.949-4.139a3.1,3.1,0,0,1,1.654,3.6.9.9,0,0,0,.35.97,4.188,4.188,0,0,1,1.583,3.2c-.354.368-2.293,1.288-7.945,1.894a.9.9,0,0,0,.191,1.791,37.789,37.789,0,0,0,6.516-1.17c.274-.083.568-.179.86-.29a4.808,4.808,0,0,1-.687,1.083,4.921,4.921,0,0,0-.424,5.764,13.732,13.732,0,0,1,2.1,7.231c0,3.955-2.517,8.253-6.427,11.283-3.6,2.791-8.491,4.452-11.778,4.4-6.805-.108-13.39-3.965-16.118-8.11a.9.9,0,1,0-1.5.992,17.638,17.638,0,0,0,2.527,3.023,22.314,22.314,0,0,0,3.006,2.317,9.629,9.629,0,0,0,2.027,1.18c1.072.527,6.235,2.308,10.058,2.123s6.719-.025,12.857-4.471,7.146-8.3,7.146-12.736c0-.072,0-.144,0-.217a5.1,5.1,0,1,0,.859-10.125ZM134.069,16.419l6.658-14.144a.828.828,0,0,1,1.5.707L135.581,17.1A5.134,5.134,0,0,0,134.069,16.419ZM145.744,36.4a3.271,3.271,0,0,1-1-.157,15.613,15.613,0,0,0-1.653-5.087,3.294,3.294,0,1,1,2.656,5.244Z" transform="translate(-98.556 0)" fill="#0b132e"/>
        <path id="Path_19" data-name="Path 19" d="M45.654,106.875a26.093,26.093,0,0,0,4.619,1.1,4.411,4.411,0,0,0,2.271,3.305,4.279,4.279,0,0,0,2.755,3.428,3.445,3.445,0,0,0,6.576,2.057h.05a4.372,4.372,0,0,0,2.842-7.693c.036-.088.067-.177.1-.266,1.29-.022,2.567-.066,3.8-.132a.9.9,0,1,0-.1-1.795c-1.136.062-2.311.1-3.5.126a4.378,4.378,0,0,0-4.351-3.949.9.9,0,1,0,0,1.8,2.575,2.575,0,0,1,2.143,4,.9.9,0,0,0,.312,1.285,2.575,2.575,0,0,1-1.825,4.763.9.9,0,0,0-1.1.846,1.647,1.647,0,1,1-2.934-1.081.9.9,0,0,0-.585-1.451,2.648,2.648,0,0,1-2.472-2.646.9.9,0,0,0-.57-.74,2.575,2.575,0,0,1,.925-4.978.9.9,0,0,0,0-1.8,4.379,4.379,0,0,0-4.189,3.123c-3.771-.6-4.839-1.27-5.1-1.494a3.149,3.149,0,0,1,2.457-2.165.9.9,0,0,0,.724-1.057,3.094,3.094,0,0,1,4.225-3.448.9.9,0,0,0,1.2-.541,4.194,4.194,0,0,1,1.388-1.959A.9.9,0,1,0,54.2,94.1a5.982,5.982,0,0,0-1.64,1.988,4.891,4.891,0,0,0-5.914,4.872,5.043,5.043,0,0,0-3.157,3.606c0,.008,0,.016,0,.024s0,.016,0,.024a6.124,6.124,0,0,0,1.488,4.5,3.124,3.124,0,0,1,.6,2.933,5.089,5.089,0,1,0-3.55,8.737,5.132,5.132,0,0,0,.86-.074c0,.072,0,.144,0,.216a15.122,15.122,0,0,0,.684,4.492.9.9,0,0,0,1.716-.533,13.328,13.328,0,0,1-.6-3.959,13.681,13.681,0,0,1,2.1-7.213,4.907,4.907,0,0,0-.423-5.754,4.837,4.837,0,0,1-.69-1.081Zm-3.637,12.109a3.291,3.291,0,1,1,2.657-5.233,15.555,15.555,0,0,0-1.652,5.077A3.282,3.282,0,0,1,42.017,118.983Z" transform="translate(-36.93 -82.6)" fill="#0b132e"/>
        <path id="Path_20" data-name="Path 20" d="M182.21,359.235a2.685,2.685,0,1,0,2.685-2.685A2.688,2.688,0,0,0,182.21,359.235Zm3.573,0a.888.888,0,1,1-.888-.888A.889.889,0,0,1,185.783,359.235Z" transform="translate(-164.748 -313.712)" fill="#0b132e"/>
        <path id="Path_21" data-name="Path 21" d="M222,310.206a2.684,2.684,0,1,0,4.724-2.495A3.966,3.966,0,1,0,222,310.206Zm.993-6.012a2.169,2.169,0,0,1,1.9,3.224.9.9,0,0,0,.184,1.106.877.877,0,0,1,.3.659.887.887,0,0,1-1.766.118.9.9,0,0,0-.809-.777,2.17,2.17,0,0,1,.2-4.33Z" transform="translate(-197.137 -266.073)" fill="#0b132e"/>
        <path id="Path_22" data-name="Path 22" d="M268.788,105.345a.788.788,0,0,1,1.483,0,.9.9,0,1,0,1.692-.606,2.585,2.585,0,0,0-4.867,0,.9.9,0,0,0,1.692.606Z" transform="translate(-239.385 -90.655)" fill="#0b132e"/>
        <path id="Path_23" data-name="Path 23" d="M209.749,126.186a.9.9,0,0,0,1.149-.543,1.089,1.089,0,0,1,2.05,0,.9.9,0,0,0,1.692-.606,2.886,2.886,0,0,0-5.434,0A.9.9,0,0,0,209.749,126.186Z" transform="translate(-188.453 -108.339)" fill="#0b132e"/>
        <path id="Path_24" data-name="Path 24" d="M201.31,205.143a2.576,2.576,0,0,0,1.24-.316.9.9,0,1,0-.864-1.576.794.794,0,0,1-1.078-1.078.9.9,0,1,0-1.576-.864,2.588,2.588,0,0,0,2.278,3.834Z" transform="translate(-179.271 -176.723)" fill="#0b132e"/>
        <path id="Path_25" data-name="Path 25" d="M111.792,27.875a4.364,4.364,0,0,0,1.065.133,4.291,4.291,0,0,0,4.169-3.223,5.711,5.711,0,0,0-.745-4.474.9.9,0,1,0-1.51.975,3.856,3.856,0,0,1,.512,3.061,2.5,2.5,0,0,1-3.053,1.786,1.483,1.483,0,0,1-1.1-1.785.769.769,0,0,1,.94-.542.268.268,0,0,1,.2.319.9.9,0,0,0,1.743.438,2.067,2.067,0,0,0-1.509-2.5,2.567,2.567,0,0,0-3.121,1.847,3.282,3.282,0,0,0,2.4,3.966Z" transform="translate(-100.594 -17.516)" fill="#0b132e"/>
        <path id="Path_26" data-name="Path 26" d="M414.887,79.695a4.221,4.221,0,0,0-2.625-1.97,5.71,5.71,0,0,0-4.474.745.9.9,0,0,0,.975,1.51,3.856,3.856,0,0,1,3.061-.512,2.437,2.437,0,0,1,1.515,1.139,2.534,2.534,0,0,1,.271,1.914,1.483,1.483,0,0,1-1.785,1.1.739.739,0,0,1-.459-.346.786.786,0,0,1-.083-.594.282.282,0,0,1,.127-.174.247.247,0,0,1,.192-.03.9.9,0,0,0,.438-1.743,2.032,2.032,0,0,0-1.564.238,2.069,2.069,0,0,0-.936,1.271,2.573,2.573,0,0,0,.277,1.944,2.523,2.523,0,0,0,1.57,1.178,3.214,3.214,0,0,0,.787.1,3.3,3.3,0,0,0,3.179-2.5A4.321,4.321,0,0,0,414.887,79.695Z" transform="translate(-362.841 -68.24)" fill="#0b132e"/>
        <path id="Path_27" data-name="Path 27" d="M51.321,92.839a.9.9,0,1,0,.378-1.757,3.856,3.856,0,0,1-2.526-1.8,2.5,2.5,0,0,1,.9-3.422,1.506,1.506,0,0,1,1.136-.174,1.438,1.438,0,0,1,.9.662.739.739,0,0,1,.08.569.786.786,0,0,1-.361.479.283.283,0,0,1-.213.034.247.247,0,0,1-.157-.114.9.9,0,0,0-1.542.923,2.034,2.034,0,0,0,1.274.938,2.069,2.069,0,0,0,1.561-.237,2.573,2.573,0,0,0,1.178-1.57,2.523,2.523,0,0,0-.277-1.942,3.222,3.222,0,0,0-2.018-1.485,3.292,3.292,0,0,0-2.484.378A4.3,4.3,0,0,0,47.631,90.2,5.712,5.712,0,0,0,51.321,92.839Z" transform="translate(-45.822 -73.772)" fill="#0b132e"/>
        <path id="Path_28" data-name="Path 28" d="M219.837,18.188h.04a.9.9,0,0,0,.9-.859l0-.036a.9.9,0,0,0-1.8-.08l0,.036A.9.9,0,0,0,219.837,18.188Z" transform="translate(-197.102 -14.397)" fill="#0b132e"/>
        <path id="Path_29" data-name="Path 29" d="M220,48.392a.9.9,0,0,0-.936.859l0,.036a.9.9,0,0,0,.859.936h.039a.9.9,0,0,0,.9-.86l0-.036A.9.9,0,0,0,220,48.392Z" transform="translate(-197.176 -42.594)" fill="#0b132e"/>
        <path id="Path_30" data-name="Path 30" d="M204.408,34.357l.033,0h.045a.9.9,0,0,0,.043-1.8l-.033,0a.9.9,0,1,0-.088,1.795Z" transform="translate(-183.531 -28.66)" fill="#0b132e"/>
        <path id="Path_31" data-name="Path 31" d="M235.076,34.267l.033,0h.045a.9.9,0,0,0,.043-1.8l-.033,0a.9.9,0,0,0-.088,1.795Z" transform="translate(-210.513 -28.581)" fill="#0b132e"/>
      </g>
    </g>
    <text id="NERDLAB" transform="translate(198.724 81.285)" fill="#554e55" stroke="#0b132e" stroke-linecap="round" stroke-width="1" font-size="39" font-family="Kefa-Bold, Kefa" font-weight="700"><tspan x="0" y="0" letter-spacing="-0.04em">N</tspan><tspan y="0" fill="#c7417b" letter-spacing="-0.03em">E</tspan><tspan y="0">R</tspan><tspan y="0" letter-spacing="-0.05em">D</tspan><tspan y="0" letter-spacing="0.036em">L</tspan><tspan y="0">AB</tspan></text>
  </g>
</svg>
