<svg xmlns="http://www.w3.org/2000/svg" width="15" height="15" viewBox="0 0 15 15">
  <g id="Group_16" data-name="Group 16" transform="translate(-613 -476)">
    <g id="share" transform="translate(613 476)">
      <path id="Path_32" data-name="Path 32" d="M203.608,83.613h-3.75a3,3,0,0,0-3,3v9a3,3,0,0,0,3,3h9a3,3,0,0,0,3-3v-3.75a.75.75,0,1,0-1.5,0v3.75a1.5,1.5,0,0,1-1.5,1.5h-9a1.5,1.5,0,0,1-1.5-1.5v-9a1.5,1.5,0,0,1,1.5-1.5h3.75a.75.75,0,1,0,0-1.5Zm5.689,1.5h-2.689a.75.75,0,0,1,0-1.5h4.5a.75.75,0,0,1,.75.75v4.5a.75.75,0,1,1-1.5,0V86.173l-5.47,5.47a.75.75,0,0,1-1.061-1.061Z" transform="translate(-196.858 -83.613)" fill="#554e55"/>
    </g>
  </g>
</svg>
