<svg xmlns="http://www.w3.org/2000/svg" xmlns:xlink="http://www.w3.org/1999/xlink" width="25" height="25" viewBox="0 0 25 25">
  <defs>
    <clipPath id="clip-path">
      <rect id="Rectangle_16" data-name="Rectangle 16" width="25" height="25" fill="#554e55"/>
    </clipPath>
  </defs>
  <g id="twitter" clip-path="url(#clip-path)">
    <path id="Path_36" data-name="Path 36" d="M25,4.748a10.686,10.686,0,0,1-2.953.809A5.1,5.1,0,0,0,24.3,2.725a10.244,10.244,0,0,1-3.25,1.241,5.125,5.125,0,0,0-8.866,3.5A5.276,5.276,0,0,0,12.3,8.639,14.507,14.507,0,0,1,1.741,3.278a5.127,5.127,0,0,0,1.575,6.85A5.061,5.061,0,0,1,1,9.5v.056a5.149,5.149,0,0,0,4.106,5.036,5.118,5.118,0,0,1-1.344.169,4.528,4.528,0,0,1-.97-.088,5.174,5.174,0,0,0,4.789,3.57,10.3,10.3,0,0,1-6.355,2.186A9.592,9.592,0,0,1,0,20.356a14.429,14.429,0,0,0,7.863,2.3A14.487,14.487,0,0,0,22.45,8.072c0-.227-.008-.445-.019-.662A10.225,10.225,0,0,0,25,4.748Z" fill="#554e55"/>
  </g>
</svg>
